{"title":"One for the Money 2012 RC BD Rip Ac3 Xvid ANALOG","uid":7064567,"size":1557547836,"categoryP":"video","categoryS":"movies","magnet":"?xt=urn:btih:bf866f891d491db782dafd35769d9fa705417ac4&amp;dn=One+for+the+Money+2012+RC+BD+Rip+Ac3+Xvid+ANALOG&amp;tr=udp%3A%2F%2Ftracker.openbittorrent.com%3A80&amp;tr=udp%3A%2F%2Fopen.demonii.com%3A1337&amp;tr=udp%3A%2F%2Ftracker.coppersurfer.tk%3A6969&amp;tr=udp%3A%2F%2Fexodus.desync.com%3A6969","seeders":1,"leechers":0,"uploader":"MsB1982","files":5,"time":1330470123,"description":"\n\n\n &lt;a href=&quot;\nhttp://www.imdb.com/title/tt1598828/&quot; rel=&quot;nofollow&quot; target=&quot;_NEW&quot;&gt;\nhttp://www.imdb.com/title/tt1598828/&lt;/a&gt;\n\nComplete name                            : One.for.the.Money.2012.RC.BD.Rip.Ac3.Xvid.ANALOG\\O.F.T.M.RC.BDR.ANALOG.avi\nFormat                                   : AVI\nFormat/Info                              : Audio Video Interleave\nFile size                                : 1.44 GiB\nDuration                                 : 1h 31mn\nOverall bit rate                         : 2 260 Kbps\nMovie name                               : O.F.T.M.RC.BDR.ANALOG\nWriting application                      : VirtualDub build 32842/release\nCopyright                                : ANALOG\n\nVideo\nID                                       : 0\nFormat                                   : MPEG-4 Visual\nFormat profile                           : Advanced Simple@L5\nFormat settings, BVOP                    : 1\nFormat settings, QPel                    : No\nFormat settings, GMC                     : No warppoints\nFormat settings, Matrix                  : Default (H.263)\nMuxing mode                              : Packed bitstream\nCodec ID                                 : XVID\nCodec ID/Hint                            : XviD\nDuration                                 : 1h 31mn\nBit rate                                 : 1 803 Kbps\nWidth                                    : 720 pixels\nHeight                                   : 304 pixels\nDisplay aspect ratio                     : 2.35:1\nFrame rate                               : 23.976 fps\nColor space                              : YUV\nChroma subsampling                       : 4:2:0\nBit depth                                : 8 bits\nScan type                                : Progressive\nCompression mode                         : Lossy\nBits/(Pixel*Frame)                       : 0.344\nStream size                              : 1.15 GiB (80%)\nWriting library                          : XviD 64\n\nAudio\nID                                       : 1\nFormat                                   : AC-3\nFormat/Info                              : Audio Coding 3\nMode extension                           : CM (complete main)\nCodec ID                                 : 2000\nDuration                                 : 1h 31mn\nBit rate mode                            : Constant\nBit rate                                 : 448 Kbps\nChannel(s)                               : 6 channels\nChannel positions                        : Front: L C R, Side: L R, LFE\nSampling rate                            : 48.0 KHz\nBit depth                                : 16 bits\nCompression mode                         : Lossy\nStream size                              : 293 MiB (20%)\nAlignment                                : Aligned on interleaves\nInterleave, duration                     : 42 ms (1.00 video frame)\nInterleave, preload duration             : 512 ms\nLanguage                                 : English(studio audio DTS mixed to ac3)\nSample                                   : Yes\nSource                                   : RC.BD.25 THANX \nAs humans, we perceive the world in analog. Everything we see and hear is a continuous transmission of information to our senses.\n&lt;a class=&quot;__cf_email__&quot; href=&quot;/cdn-cgi/l/email-protection&quot; data-cfemail=&quot;0968676865666e2779273b277949617c7a6164686065276a6664&quot;&gt;[email&amp;#160;protected]&lt;/a&gt;&lt;script cf-hash='f9e31' type=&quot;text/javascript&quot;&gt;\n/* &lt;![CDATA[ */!function(){try{var t=&quot;currentScript&quot;in document?document.currentScript:function(){for(var t=document.getElementsByTagName(&quot;script&quot;),e=t.length;e--;)if(t[e].getAttribute(&quot;cf-hash&quot;))return t[e]}();if(t&amp;&amp;t.previousSibling){var e,r,n,i,c=t.previousSibling,a=c.getAttribute(&quot;data-cfemail&quot;);if(a){for(e=&quot;&quot;,r=parseInt(a.substr(0,2),16),n=2;a.length-n;n+=2)i=parseInt(a.substr(n,2),16)^r,e+=String.fromCharCode(i);e=document.createTextNode(e),c.parentNode.replaceChild(e,c)}}}catch(u){}}();/* ]]&gt; */&lt;/script&gt;\nGREATINGS TO ALL THE PLACES I LURK!!","torrent":{"xt":"urn:btih:bf866f891d491db782dafd35769d9fa705417ac4","amp;dn":"One+for+the+Money+2012+RC+BD+Rip+Ac3+Xvid+ANALOG","amp;tr":["udp%3A%2F%2Ftracker.openbittorrent.com%3A80","udp%3A%2F%2Fopen.demonii.com%3A1337","udp%3A%2F%2Ftracker.coppersurfer.tk%3A6969","udp%3A%2F%2Fexodus.desync.com%3A6969"],"infoHash":"bf866f891d491db782dafd35769d9fa705417ac4","infoHashBuffer":{"type":"Buffer","data":[191,134,111,137,29,73,29,183,130,218,253,53,118,157,159,167,5,65,122,196]},"announce":[],"urlList":[]}}